<?xml version="1.0" encoding="UTF-8"?>
<svg xmlns="http://www.w3.org/2000/svg" width="256" height="256" viewBox="0 0 256 256">
  <!-- 背景圆 -->
  <circle cx="128" cy="128" r="128" fill="#15202b"/>
  
  <!-- 循环箭头 -->
  <g transform="translate(128 128) scale(6) translate(-12 -12)" fill="none" stroke="#1d9bf0" stroke-width="1.5" stroke-linecap="round" stroke-linejoin="round">
    <polyline points="23 4 23 10 17 10"/>
    <polyline points="1 20 1 14 7 14"/>
    <path d="M3.51 9a9 9 0 0 1 14.85-3.36L23 10M1 14l4.64 4.36A9 9 0 0 0 20.49 15"/>
  </g>
  
  <!-- Twitter 鸟 -->
  <g transform="translate(128 128) scale(4.5) translate(-12 -12)" fill="#1d9bf0" stroke="none">
    <path d="M23 3a10.9 10.9 0 0 1-3.14 1.53 4.48 4.48 0 0 0-7.86 3v1A10.66 10.66 0 0 1 3 4s-4 9 5 13a11.64 11.64 0 0 1-7 2c9 5 20 0 20-11.5a4.5 4.5 0 0 0-.08-.83A7.72 7.72 0 0 0 23 3z"/>
  </g>
</svg> 