<?xml version="1.0" encoding="utf-8"?><!-- Generator: Adobe Illustrator 21.0.0, SVG Export Plug-In . SVG Version: 6.00 Build 0)  --><svg xmlns="http://www.w3.org/2000/svg" xmlns:xlink="http://www.w3.org/1999/xlink" viewBox="0 0 100 100" width="1024px" height="1024px"><g id="emoticon_lol_1_"><g id="window_plug_88_"></g></g><g id="emoticon_angry"><g id="window_plug_89_"></g></g><g id="emoticon_embarass"><g id="window_plug_90_"></g></g><g id="emoticon_cry"><g id="window_plug_91_"></g></g><g id="emoticon_happy"><g id="window_plug_92_"></g></g><g id="emoticon_funny"><g id="window_plug_93_"></g></g><g id="emoticon_in_love"><g id="window_plug_94_"></g></g><g id="emoticon_sad"><g id="window_plug_95_"></g></g><g id="energy_round"><g id="window_plug_96_"></g></g><g id="love_round"><g id="window_plug_97_"></g></g><g id="delete_round"><g id="window_plug_71_"></g></g><g id="tick_round"></g><g id="remove_round"><g id="window_plug_73_"></g></g><g id="add_round"></g><g id="performance"><g id="window_plug_75_"></g></g><g id="key_tag"><g id="window_plug_76_"></g></g><g id="blueprint_pen"><g id="window_plug_77_"></g></g><g id="blueprint_zoom"><g id="window_plug_78_"></g></g><g id="map_navigator"><g id="window_plug_79_"></g></g><g id="id_men_horizontal"></g><g id="id_women_horizontal"><g id="window_plug_41_"></g></g><g id="id_men"><g id="window_plug_42_"></g></g><g id="id_women"><g id="window_plug_43_"></g></g><g id="women_macbook"><g id="window_plug_44_"></g></g><g id="performance_macbook"><g id="window_plug_45_"></g></g><g id="performance_imac"><g id="window_plug_46_"></g></g><g id="women_imac"><g id="window_plug_47_"></g></g><g id="performance_smartphone"><g id="window_plug_48_"></g></g><g id="smathone_chat_female"><g id="window_plug_49_"></g></g><g id="smathone_chat_male"><g id="window_plug_50_"></g></g><g id="security_eye"><g id="window_plug_251_"></g></g><g id="security_block"><g id="window_plug_252_"></g></g><g id="security_settings"><g id="window_plug_253_"></g></g><g id="security_wi-fi"><g id="window_plug_254_"></g></g><g id="security_lock_green"></g><g id="security_time"><g id="window_plug_256_"></g></g><g id="security_energy"><g id="window_plug_257_"></g></g><g id="security_lock_yellow"><g id="window_plug_258_"></g></g><g id="security_user_female"><g id="window_plug_259_"></g></g><g id="security_user_male"><g id="window_plug_260_"></g></g><g id="security_lock"><g id="window_plug_1560_"></g></g><g id="smartphone_answer"><g id="window_plug_1561_"></g></g><g id="smartphone_decilne"><g id="window_plug_1562_"></g></g><g id="bug_document"><g id="window_plug_1563_"></g></g><g id="bug_window"><g id="window_plug_1564_"></g></g><g id="bug_smartphone"><g id="window_plug_1565_"></g></g><g id="bug_laptop"><g id="window_plug_1566_"></g></g><g id="button_google_1_"><g id="window_plug_1567_"></g></g><g id="button_pinterest_1_"><g id="window_plug_1568_"></g></g><g id="button_facebook"><g id="window_plug_1569_"></g></g><g id="button_snapchat"><g id="window_plug_1550_"></g></g><g id="button_dribbble"><g id="window_plug_1551_"></g></g><g id="button_flickr"><g id="window_plug_1552_"></g></g><g id="button_youtube"><g id="window_plug_1553_"></g></g><g id="button_skype"><g id="window_plug_1554_"></g></g><g id="button_twitter"><path d="M88.704,55.677c0.3-0.616,0.566-1.264,0.796-1.943c2.633-7.77-1.349-17.078-9.733-19.325C78.86,23.026,70.86,15.216,61.826,13.884c-10.341-1.525-19.814,5.044-22.966,15.485c-3.799-1.346-7.501-1.182-10.99,0.857c-1.583,0.732-3.031,1.812-4.33,3.233c-1.907,2.086-3.147,4.719-3.652,7.495c-0.748,0.118-1.483,0.236-2.176,0.484c-4.04,1.449-6.589,4.431-7.288,8.923c-0.435,2.797,0.443,5.587,0.933,6.714c1.935,4.455,6.422,6.98,10.981,6.312c0.227-0.033,0.557,0.069,0.752,0.233c0.241,7.12,3.698,13.417,8.884,17.014c8.321,5.772,19.027,3.994,25.781-3.921c2.894,2.96,6.338,4.398,10.384,3.876c4.023-0.519,7.147-2.739,9.426-6.349c1.053,0.283,2.051,0.691,3.083,0.804c4.042,0.442,7.324-1.165,9.732-4.8c0.922-1.391,1.793-3.194,1.793-6.354C92.174,60.634,90.88,57.667,88.704,55.677z" style="fill:#C7EDE6;"/><g><g><path d="M18.368,47.713H8.338c-0.276,0-0.5-0.224-0.5-0.5s0.224-0.5,0.5-0.5h10.03c0.276,0,0.5,0.224,0.5,0.5S18.645,47.713,18.368,47.713z" style="fill:#FFFFFF;"/><path d="M21.25,47.713h-1.446c-0.276,0-0.5-0.224-0.5-0.5s0.224-0.5,0.5-0.5h1.446c0.276,0,0.5,0.224,0.5,0.5S21.526,47.713,21.25,47.713z" style="fill:#FFFFFF;"/><path d="M25.304,47.713h-2.545c-0.276,0-0.5-0.224-0.5-0.5s0.224-0.5,0.5-0.5h2.545c0.276,0,0.5,0.224,0.5,0.5S25.58,47.713,25.304,47.713z" style="fill:#FFFFFF;"/></g><g><path d="M25.304,49.578h-9.616c-0.276,0-0.5-0.224-0.5-0.5s0.224-0.5,0.5-0.5h9.616c0.276,0,0.5,0.224,0.5,0.5S25.58,49.578,25.304,49.578z" style="fill:#FFFFFF;"/><path d="M13.956,49.578h-0.58c-0.276,0-0.5-0.224-0.5-0.5s0.224-0.5,0.5-0.5h0.58c0.276,0,0.5,0.224,0.5,0.5S14.233,49.578,13.956,49.578z" style="fill:#FFFFFF;"/><path d="M11.579,49.578h-1.456c-0.276,0-0.5-0.224-0.5-0.5s0.224-0.5,0.5-0.5h1.456c0.276,0,0.5,0.224,0.5,0.5S11.856,49.578,11.579,49.578z" style="fill:#FFFFFF;"/></g><path d="M20.715,45.848h-5.027c-0.276,0-0.5-0.224-0.5-0.5s0.224-0.5,0.5-0.5h5.027c0.276,0,0.5,0.224,0.5,0.5S20.991,45.848,20.715,45.848z" style="fill:#FFFFFF;"/><path d="M20.715,43.983h-1.257c-0.276,0-0.5-0.224-0.5-0.5s0.224-0.5,0.5-0.5h1.257c0.276,0,0.5,0.224,0.5,0.5S20.991,43.983,20.715,43.983z" style="fill:#FFFFFF;"/><path d="M17.447,51.443h-1.759c-0.276,0-0.5-0.224-0.5-0.5s0.224-0.5,0.5-0.5h1.759c0.276,0,0.5,0.224,0.5,0.5S17.723,51.443,17.447,51.443z" style="fill:#FFFFFF;"/></g><g id="window_plug_1555_"></g><g><g><path d="M74.394,25.392h-10.03c-0.276,0-0.5-0.224-0.5-0.5s0.224-0.5,0.5-0.5h10.03c0.276,0,0.5,0.224,0.5,0.5S74.671,25.392,74.394,25.392z" style="fill:#FFFFFF;"/><path d="M77.276,25.392H75.83c-0.276,0-0.5-0.224-0.5-0.5s0.224-0.5,0.5-0.5h1.446c0.276,0,0.5,0.224,0.5,0.5S77.552,25.392,77.276,25.392z" style="fill:#FFFFFF;"/><path d="M81.33,25.392h-2.546c-0.276,0-0.5-0.224-0.5-0.5s0.224-0.5,0.5-0.5h2.546c0.276,0,0.5,0.224,0.5,0.5S81.607,25.392,81.33,25.392z" style="fill:#FFFFFF;"/></g><g><path d="M81.33,27.257h-9.617c-0.276,0-0.5-0.224-0.5-0.5s0.224-0.5,0.5-0.5h9.617c0.276,0,0.5,0.224,0.5,0.5S81.607,27.257,81.33,27.257z" style="fill:#FFFFFF;"/><path d="M69.982,27.257h-0.58c-0.276,0-0.5-0.224-0.5-0.5s0.224-0.5,0.5-0.5h0.58c0.276,0,0.5,0.224,0.5,0.5S70.259,27.257,69.982,27.257z" style="fill:#FFFFFF;"/><path d="M67.605,27.257h-1.456c-0.276,0-0.5-0.224-0.5-0.5s0.224-0.5,0.5-0.5h1.456c0.276,0,0.5,0.224,0.5,0.5S67.882,27.257,67.605,27.257z" style="fill:#FFFFFF;"/></g><path d="M76.741,23.527h-5.028c-0.276,0-0.5-0.224-0.5-0.5s0.224-0.5,0.5-0.5h5.028c0.276,0,0.5,0.224,0.5,0.5S77.018,23.527,76.741,23.527z" style="fill:#FFFFFF;"/><path d="M76.741,21.662h-1.257c-0.276,0-0.5-0.224-0.5-0.5s0.224-0.5,0.5-0.5h1.257c0.276,0,0.5,0.224,0.5,0.5S77.018,21.662,76.741,21.662z" style="fill:#FFFFFF;"/><path d="M73.472,29.122h-1.759c-0.276,0-0.5-0.224-0.5-0.5s0.224-0.5,0.5-0.5h1.759c0.276,0,0.5,0.224,0.5,0.5S73.749,29.122,73.472,29.122z" style="fill:#FFFFFF;"/></g><g><g><path d="M74.965,48.546c0,0,10.616,0,10.681,0c2.452,0,4.439-1.987,4.439-4.439c0-2.139-1.513-3.924-3.527-4.344c0.023-0.187,0.039-0.377,0.039-0.57c0-2.539-2.058-4.598-4.597-4.598c-1.499,0-2.827,0.721-3.666,1.831c-0.215-2.826-2.739-5.007-5.693-4.646c-2.16,0.264-3.947,1.934-4.344,4.073c-0.127,0.686-0.114,1.352,0.013,1.977c-0.579-0.624-1.403-1.016-2.322-1.016c-1.68,0-3.052,1.308-3.16,2.961c-0.763-0.169-1.593-0.158-2.467,0.17c-1.671,0.627-2.861,2.2-2.93,3.983c-0.099,2.533,1.925,4.617,4.435,4.617c0.191,0,0.861,0,1.015,0h9.218" style="fill:#FDFCEF;"/><path d="M85.646,49.046H74.965c-0.276,0-0.5-0.224-0.5-0.5s0.224-0.5,0.5-0.5h10.681c2.172,0,3.939-1.767,3.939-3.939c0-1.854-1.316-3.476-3.129-3.855c-0.254-0.053-0.426-0.293-0.394-0.551c0.021-0.167,0.035-0.336,0.035-0.508c0-2.259-1.838-4.098-4.098-4.098c-1.292,0-2.482,0.595-3.267,1.632c-0.125,0.167-0.338,0.239-0.54,0.178c-0.199-0.059-0.342-0.234-0.357-0.441c-0.094-1.238-0.701-2.401-1.664-3.191c-0.973-0.797-2.207-1.149-3.471-0.997c-1.947,0.238-3.556,1.747-3.913,3.668c-0.112,0.6-0.108,1.201,0.011,1.786c0.044,0.22-0.062,0.442-0.262,0.544c-0.2,0.102-0.443,0.06-0.595-0.104c-0.513-0.552-1.208-0.856-1.956-0.856c-1.4,0-2.569,1.095-2.661,2.494c-0.01,0.146-0.082,0.28-0.199,0.367c-0.117,0.087-0.268,0.118-0.408,0.088c-0.755-0.167-1.469-0.118-2.183,0.15c-1.498,0.562-2.545,1.983-2.606,3.535c-0.042,1.083,0.347,2.109,1.096,2.889c0.75,0.78,1.758,1.209,2.84,1.209h10.233c0.276,0,0.5,0.224,0.5,0.5s-0.224,0.5-0.5,0.5H61.866c-1.356,0-2.621-0.539-3.561-1.516c-0.939-0.977-1.428-2.263-1.375-3.621c0.076-1.949,1.384-3.73,3.254-4.432c0.721-0.27,1.464-0.363,2.221-0.279c0.362-1.655,1.842-2.884,3.582-2.884c0.603,0,1.194,0.151,1.72,0.432c0.004-0.327,0.036-0.656,0.097-0.984c0.436-2.346,2.399-4.188,4.775-4.478c1.535-0.193,3.039,0.243,4.226,1.216c0.899,0.737,1.543,1.742,1.847,2.851c0.919-0.808,2.095-1.256,3.347-1.256c2.811,0,5.098,2.287,5.098,5.098c0,0.064-0.001,0.128-0.004,0.192c2.048,0.628,3.492,2.547,3.492,4.723C90.585,46.83,88.369,49.046,85.646,49.046z" style="fill:#472B29;"/></g><g><path d="M72.392,38.767c-1.642-0.108-3.055,1.026-3.157,2.533c-0.013,0.187-0.004,0.371,0.023,0.55c-0.317-0.358-0.786-0.6-1.324-0.636c-0.985-0.065-1.836,0.586-1.959,1.471c-0.179-0.049-0.366-0.082-0.56-0.095c-1.437-0.094-2.674,0.898-2.762,2.216" style="fill:#FDFCEF;"/><path d="M62.655,45.057c-0.006,0-0.012,0-0.017,0c-0.138-0.009-0.242-0.128-0.233-0.266c0.098-1.454,1.448-2.556,3.028-2.449c0.116,0.008,0.234,0.022,0.353,0.045c0.259-0.878,1.163-1.485,2.166-1.421c0.377,0.025,0.73,0.139,1.035,0.33c0-0.003,0-0.007,0-0.011c0.111-1.642,1.656-2.873,3.423-2.766c0.138,0.009,0.242,0.128,0.233,0.266c-0.009,0.138-0.125,0.243-0.266,0.233c-1.511-0.102-2.799,0.933-2.891,2.3c-0.011,0.167-0.004,0.333,0.021,0.496c0.017,0.109-0.041,0.217-0.141,0.264c-0.098,0.047-0.22,0.023-0.293-0.061c-0.285-0.321-0.705-0.522-1.154-0.552c-0.852-0.056-1.589,0.496-1.695,1.256c-0.01,0.071-0.05,0.134-0.109,0.174c-0.06,0.04-0.135,0.051-0.203,0.033c-0.173-0.046-0.345-0.076-0.511-0.086c-1.29-0.082-2.417,0.804-2.496,1.983C62.895,44.956,62.785,45.057,62.655,45.057z" style="fill:#472B29;"/></g><g><path d="M87.443,40.283c-1.543-0.727-3.327-0.213-3.985,1.15c-0.082,0.169-0.142,0.344-0.182,0.521" style="fill:#FDFCEF;"/><path d="M83.275,42.204c-0.018,0-0.037-0.002-0.056-0.006c-0.135-0.031-0.219-0.165-0.188-0.299c0.045-0.199,0.113-0.393,0.201-0.574c0.716-1.484,2.652-2.054,4.317-1.268c0.125,0.059,0.179,0.208,0.12,0.333c-0.059,0.126-0.21,0.177-0.333,0.12c-1.416-0.667-3.056-0.204-3.654,1.033c-0.072,0.148-0.127,0.305-0.164,0.468C83.492,42.125,83.389,42.204,83.275,42.204z" style="fill:#472B29;"/></g></g><g><g><g><path d="M65.26,69.974H39.538c-3.766,0-6.847-3.081-6.847-6.847V37.405c0-3.766,3.081-6.847,6.847-6.847H65.26c3.766,0,6.847,3.081,6.847,6.847v25.722C72.108,66.893,69.026,69.974,65.26,69.974z" style="fill:#73B2E5;"/><path d="M65.26,70.675H39.538c-4.162,0-7.547-3.386-7.547-7.547V37.405c0-4.162,3.386-7.547,7.547-7.547H65.26c4.162,0,7.547,3.386,7.547,7.547v25.722C72.808,67.289,69.422,70.675,65.26,70.675z M39.538,31.258c-3.39,0-6.147,2.757-6.147,6.147v25.722c0,3.39,2.757,6.147,6.147,6.147H65.26c3.39,0,6.147-2.757,6.147-6.147V37.405c0-3.39-2.757-6.147-6.147-6.147H39.538z" style="fill:#472B29;"/></g><path d="M63.743,67.159H41.055c-3.052,0-5.549-2.497-5.549-5.549V38.922c0-3.052,2.497-5.549,5.549-5.549h22.688c3.052,0,5.549,2.497,5.549,5.549V61.61C69.292,64.662,66.795,67.159,63.743,67.159z" style="fill:#FDFCEE;"/><path d="M64.158,67.509H40.641c-3.024,0-5.484-2.46-5.484-5.484V38.508c0-3.024,2.46-5.484,5.484-5.484h22.395c0.193,0,0.35,0.157,0.35,0.35s-0.157,0.35-0.35,0.35H40.641c-2.638,0-4.784,2.146-4.784,4.784v23.517c0,2.638,2.146,4.784,4.784,4.784h23.517c2.638,0,4.784-2.146,4.784-4.784v-13.01c0-0.193,0.157-0.35,0.35-0.35s0.35,0.157,0.35,0.35v13.01C69.642,65.049,67.182,67.509,64.158,67.509z" style="fill:#472B29;"/><g><path d="M69.292,47.488c-0.193,0-0.35-0.157-0.35-0.35v-2.503c0-0.193,0.157-0.35,0.35-0.35s0.35,0.157,0.35,0.35v2.503C69.642,47.331,69.486,47.488,69.292,47.488z" style="fill:#472B29;"/></g><g><path d="M69.292,43.734c-0.193,0-0.35-0.157-0.35-0.35v-1.251c0-0.193,0.157-0.35,0.35-0.35s0.35,0.157,0.35,0.35v1.251C69.642,43.577,69.486,43.734,69.292,43.734z" style="fill:#472B29;"/></g></g><g><path d="M63.043,44.34c-0.783,0.348-1.624,0.583-2.509,0.687c0.902-0.54,1.594-1.396,1.921-2.415c-0.844,0.5-1.779,0.864-2.773,1.059c-0.797-0.848-1.932-1.379-3.189-1.379c-2.412,0-4.366,1.955-4.366,4.367c0,0.342,0.038,0.676,0.112,0.995c-3.63-0.182-6.848-1.921-9.002-4.563c-0.375,0.645-0.591,1.395-0.591,2.196c0,1.516,0.771,2.852,1.942,3.636c-0.715-0.023-1.389-0.219-1.978-0.546c-0.001,0.018-0.001,0.037-0.001,0.055c0,2.117,1.505,3.882,3.503,4.283c-0.366,0.099-0.752,0.153-1.151,0.153c-0.282,0-0.555-0.027-0.821-0.078c0.555,1.734,2.169,2.997,4.079,3.033c-1.494,1.171-3.377,1.87-5.423,1.87c-0.353,0-0.701-0.021-1.042-0.061c1.932,1.238,4.228,1.961,6.695,1.961c8.033,0,12.427-6.655,12.427-12.427c0-0.189-0.005-0.378-0.013-0.566C61.717,45.985,62.457,45.217,63.043,44.34z" style="fill:#268BEF;"/><path d="M48.45,59.943c-2.444,0-4.824-0.697-6.884-2.016c-0.137-0.088-0.195-0.259-0.141-0.413c0.055-0.153,0.206-0.245,0.371-0.229c0.327,0.039,0.664,0.059,1,0.059c1.608,0,3.14-0.441,4.478-1.282c-1.614-0.359-2.949-1.547-3.467-3.164c-0.038-0.118-0.01-0.246,0.071-0.339c0.081-0.092,0.207-0.137,0.327-0.112c0.126,0.024,0.253,0.042,0.381,0.054c-1.406-0.831-2.328-2.364-2.328-4.068c0-0.124,0.066-0.266,0.173-0.329c0.108-0.062,0.24-0.091,0.348-0.032c0.208,0.115,0.425,0.212,0.65,0.289c-0.724-0.845-1.135-1.929-1.135-3.072c0-0.834,0.221-1.654,0.638-2.372c0.058-0.1,0.161-0.164,0.275-0.173c0.114-0.006,0.226,0.039,0.299,0.128c2.065,2.533,5.072,4.123,8.307,4.405c-0.026-0.202-0.039-0.408-0.039-0.615c0-2.601,2.116-4.717,4.717-4.717c1.233,0,2.427,0.489,3.305,1.347c0.87-0.191,1.704-0.52,2.479-0.979c0.125-0.073,0.283-0.063,0.396,0.028c0.114,0.09,0.159,0.242,0.115,0.38c-0.202,0.63-0.534,1.206-0.969,1.694c0.369-0.106,0.73-0.237,1.081-0.393c0.144-0.062,0.31-0.024,0.41,0.094c0.101,0.119,0.11,0.291,0.023,0.42c-0.578,0.865-1.288,1.617-2.114,2.239c0.004,0.131,0.007,0.262,0.007,0.394C61.227,53.447,56.447,59.943,48.45,59.943z M43.189,58.035c1.635,0.793,3.429,1.208,5.261,1.208c7.56,0,12.077-6.14,12.077-12.077c0-0.184-0.005-0.368-0.013-0.551c-0.005-0.118,0.049-0.229,0.145-0.298c0.502-0.362,0.96-0.776,1.37-1.236c-0.474,0.137-0.959,0.235-1.453,0.293c-0.159,0.019-0.318-0.079-0.372-0.234c-0.054-0.156,0.01-0.329,0.151-0.414c0.559-0.335,1.023-0.795,1.359-1.337c-0.63,0.283-1.287,0.492-1.964,0.624c-0.118,0.025-0.239-0.015-0.322-0.104c-0.758-0.806-1.827-1.268-2.935-1.268c-2.215,0-4.017,1.802-4.017,4.017c0,0.313,0.035,0.622,0.104,0.916c0.025,0.107-0.001,0.22-0.072,0.304c-0.07,0.084-0.182,0.117-0.286,0.125c-3.42-0.172-6.638-1.725-8.909-4.284c-0.208,0.493-0.317,1.026-0.317,1.567c0,1.345,0.668,2.596,1.787,3.345c0.13,0.087,0.186,0.25,0.138,0.398c-0.047,0.149-0.193,0.278-0.344,0.242c-0.541-0.018-1.078-0.129-1.58-0.327c0.23,1.704,1.499,3.087,3.185,3.426c0.159,0.032,0.275,0.169,0.281,0.332c0.005,0.163-0.102,0.307-0.258,0.35c-0.493,0.134-1.004,0.186-1.52,0.157c0.652,1.346,2.013,2.235,3.542,2.263c0.148,0.003,0.278,0.099,0.326,0.239c0.047,0.141,0,0.295-0.116,0.387C46.917,57.29,45.11,57.955,43.189,58.035z" style="fill:#472B29;"/></g></g><g><g><g><path d="M42.126,72.487c1.71,0,3.194,0,3.215,0c1.916,0,3.469-1.52,3.469-3.396c0-1.636-1.182-3.001-2.756-3.323c0.018-0.143,0.031-0.288,0.031-0.436c0-1.942-1.609-3.517-3.593-3.517c-1.172,0-2.209,0.551-2.865,1.401c-0.168-2.162-2.141-3.83-4.45-3.554c-1.688,0.202-3.084,1.479-3.395,3.116c-0.1,0.525-0.089,1.034,0.01,1.512c-0.453-0.477-1.097-0.777-1.814-0.777c-1.313,0-2.385,1.001-2.47,2.265c-0.596-0.129-1.245-0.121-1.928,0.13c-1.306,0.48-2.236,1.683-2.29,3.047c-0.077,1.937,1.504,3.532,3.467,3.532c0.149,0,0.673,0,0.794,0h7.204 M36.245,72.487h0.327" style="fill:#FDFCEF;"/><path d="M45.341,72.987h-3.215c-0.276,0-0.5-0.224-0.5-0.5s0.224-0.5,0.5-0.5h3.215c1.637,0,2.969-1.299,2.969-2.896c0-1.363-0.991-2.554-2.356-2.833c-0.256-0.052-0.429-0.293-0.396-0.552c0.016-0.123,0.027-0.247,0.027-0.374c0-1.664-1.388-3.017-3.093-3.017c-0.977,0-1.877,0.44-2.47,1.207c-0.126,0.164-0.34,0.233-0.539,0.173c-0.198-0.059-0.339-0.234-0.355-0.44c-0.071-0.913-0.506-1.741-1.227-2.332c-0.742-0.609-1.688-0.882-2.665-0.764c-1.475,0.177-2.694,1.292-2.963,2.712c-0.084,0.443-0.081,0.887,0.008,1.317c0.046,0.219-0.06,0.441-0.257,0.545c-0.197,0.104-0.44,0.063-0.595-0.099c-0.38-0.401-0.896-0.622-1.452-0.622c-1.038,0-1.903,0.79-1.971,1.798c-0.01,0.145-0.082,0.279-0.198,0.366c-0.116,0.088-0.266,0.119-0.406,0.089c-0.571-0.124-1.111-0.087-1.65,0.111c-1.129,0.415-1.917,1.459-1.963,2.598c-0.031,0.782,0.252,1.526,0.8,2.095c0.567,0.591,1.337,0.917,2.167,0.917h7.998c0.276,0,0.5,0.224,0.5,0.5s-0.224,0.5-0.5,0.5h-7.998c-1.088,0-2.141-0.446-2.888-1.224c-0.737-0.767-1.12-1.771-1.078-2.828c0.061-1.538,1.113-2.943,2.617-3.496c0.548-0.201,1.111-0.278,1.688-0.229c0.331-1.268,1.506-2.198,2.882-2.198c0.431,0,0.854,0.094,1.24,0.269c0.011-0.199,0.035-0.397,0.073-0.597c0.35-1.844,1.924-3.291,3.827-3.519c1.25-0.149,2.463,0.2,3.418,0.984c0.668,0.548,1.147,1.255,1.399,2.047c0.717-0.568,1.61-0.882,2.557-0.882c2.257,0,4.093,1.802,4.093,4.017c0,0.02,0,0.04,0,0.06c1.603,0.519,2.726,2.011,2.726,3.7C49.31,71.239,47.53,72.987,45.341,72.987z M36.571,72.987h-0.327c-0.276,0-0.5-0.224-0.5-0.5s0.224-0.5,0.5-0.5h0.327c0.276,0,0.5,0.224,0.5,0.5S36.847,72.987,36.571,72.987z" style="fill:#472B29;"/></g><path d="M43.79,67.695c-0.018,0-0.037-0.002-0.056-0.006c-0.134-0.031-0.219-0.165-0.188-0.299c0.035-0.152,0.087-0.3,0.156-0.439c0.555-1.122,2.083-1.538,3.41-0.925c0.125,0.058,0.18,0.207,0.122,0.332c-0.059,0.125-0.207,0.179-0.332,0.122c-1.081-0.501-2.315-0.19-2.751,0.692c-0.051,0.104-0.09,0.214-0.117,0.329C44.008,67.616,43.905,67.695,43.79,67.695z" style="fill:#472B29;"/></g><g><path d="M39.106,72.987h-1.005c-0.276,0-0.5-0.224-0.5-0.5s0.224-0.5,0.5-0.5h1.005c0.276,0,0.5,0.224,0.5,0.5S39.383,72.987,39.106,72.987z" style="fill:#472B29;"/></g></g></g><g id="button_instagram"><g id="window_plug_1556_"></g></g><g id="button_linkedin"><g id="window_plug_1557_"></g></g><g id="button_vimeo"><g id="window_plug_1558_"></g></g><g id="button_tumblr"><g id="window_plug_1559_"></g></g><g id="marker_sun"></g><g id="marker_storm"><g id="window_plug_1422_"></g></g><g id="marker_wind"><g id="window_plug_1423_"></g></g><g id="rainbow"><g id="window_plug_1424_"></g></g><g id="moon"><g id="window_plug_1425_"></g></g><g id="wind_sock"><g id="window_plug_1426_"></g></g><g id="rain"><g id="window_plug_1427_"></g></g><g id="storm"><g id="window_plug_1428_"></g></g><g id="wind"><g id="window_plug_1429_"></g></g><g id="sun"><g id="window_plug_1430_"></g></g><g id="letter_edit"><g id="window_plug_1271_"></g></g><g id="letter_other"><g id="window_plug_1272_"></g></g><g id="letter_add"><g id="window_plug_1273_"></g></g><g id="letter_lock"><g id="window_plug_1274_"></g></g><g id="letter_security"><g id="window_plug_1275_"></g></g><g id="letter_delete"><g id="window_plug_1276_"></g></g><g id="letter_energy"><g id="window_plug_1277_"></g></g><g id="letter_star"><g id="window_plug_1278_"></g></g><g id="letter_settings"><g id="window_plug_1279_"></g></g><g id="letter_promotion"><g id="window_plug_1280_"></g></g><g id="window_promotion"><g id="window_plug_461_"></g></g><g id="window_explorer"><g id="window_plug_462_"></g></g><g id="window_exel"><g id="window_plug_463_"></g></g><g id="window_word"><g id="window_plug_464_"></g></g><g id="window_pdf"><g id="window_plug_465_"></g></g><g id="window_color"><g id="window_plug_466_"></g></g><g id="window_password"><g id="window_plug_467_"></g></g><g id="window_tools"><g id="window_plug_468_"></g></g><g id="window_idea"><g id="window_plug_469_"></g></g><g id="window_music"><g id="window_plug_470_"></g></g><g id="window_favorite"><g id="window_plug"></g></g><g id="window_other_1_"><g id="window_plug_1_"></g></g><g id="window_cloud_1_"><g id="window_plug_2_"></g></g><g id="window_security_1_"><g id="window_plug_3_"></g></g><g id="window_up_1_"><g id="window_plug_4_"></g></g><g id="window_star"><g id="window_plug_5_"></g></g><g id="window_sort"><g id="window_plug_6_"></g></g><g id="window_settings"><g id="window_plug_7_"></g></g><g id="window_search"><g id="window_plug_8_"></g></g><g id="window_energy"><g id="window_plug_9_"></g></g></svg>